<svg xmlns="http://www.w3.org/2000/svg" xml:space="preserve" style="enable-background:new 0 0 244.098 40.994" viewBox="0 0 244.098 40.994">
  <path d="M50.939 23.84V5.679h2.409v7.457h9.434V5.679h2.41V23.84h-2.41v-8.548h-9.434v8.548zM74.993 16.383h6.138l-1.877-5.022c-.583-1.522-1.014-2.79-1.293-3.779a23.174 23.174 0 0 1-.989 3.475l-1.979 5.326zm-5.25 7.457 6.974-18.161h2.587l7.431 18.161h-2.739l-2.105-5.504h-7.609l-1.978 5.504h-2.561M103.096 5.684h2.409v10.501a12.323 12.323 0 0 1-.609 4.312 5.185 5.185 0 0 1-2.257 2.638 7.766 7.766 0 0 1-4.235 1.015 8.6 8.6 0 0 1-4.134-.888 4.873 4.873 0 0 1-2.333-2.536c-.522-1.478-.75-3-.685-4.565V5.684h2.409V16.16c-.065 1.19.07 2.357.406 3.5a3.275 3.275 0 0 0 1.522 1.699 5.19 5.19 0 0 0 2.587.634c1.775 0 3.043-.406 3.779-1.217.761-.786 1.116-2.333 1.116-4.616V5.684h.025zM111.245 18.011l2.283-.203c.061.8.298 1.544.71 2.232a4.1 4.1 0 0 0 1.826 1.42c.893.37 1.823.548 2.79.533.913 0 1.725-.127 2.409-.406.71-.254 1.243-.634 1.572-1.116a2.588 2.588 0 0 0 .507-1.573 2.27 2.27 0 0 0-.431-1.471 3.593 3.593 0 0 0-1.623-1.091c-.533-.178-1.598-.482-3.272-.862a16.679 16.679 0 0 1-3.475-1.141 4.913 4.913 0 0 1-1.953-1.699 4.131 4.131 0 0 1-.634-2.257c0-.913.254-1.775.786-2.562a4.703 4.703 0 0 1 2.283-1.826 8.546 8.546 0 0 1 3.322-.609c1.319 0 2.536.203 3.551.659a4.965 4.965 0 0 1 2.359 1.877c.571.879.867 1.843.888 2.892l-2.283.152c-.059-1.041-.481-1.903-1.268-2.587-.71-.583-1.775-.888-3.17-.888-1.446 0-2.511.254-3.17.812a2.349 2.349 0 0 0-.74.841c-.179.34-.27.702-.274 1.086 0 .634.254 1.192.71 1.598a9.495 9.495 0 0 0 3.652 1.294c1.37.271 2.706.66 4.007 1.167a5.372 5.372 0 0 1 2.333 1.852c.507.761.761 1.598.761 2.587a4.862 4.862 0 0 1-.837 2.739 5.388 5.388 0 0 1-2.384 1.978c-1.223.476-2.492.713-3.804.713s-2.581-.238-3.804-.713a5.823 5.823 0 0 1-3.379-3.72 5.81 5.81 0 0 1-.248-1.708zM141.151 23.84V5.679h2.409v7.457h9.435V5.679h2.409V23.84h-2.409v-8.548h-9.435v8.548zM163.703 15.044c0 2.181.558 3.906 1.75 5.174.57.618 1.242 1.091 2.016 1.418s1.582.48 2.422.459c1.801 0 3.297-.634 4.464-1.902 1.167-1.268 1.75-3.094 1.75-5.428 0-1.471-.254-2.765-.761-3.855a5.853 5.853 0 0 0-2.196-2.547 5.84 5.84 0 0 0-1.548-.7 5.844 5.844 0 0 0-1.684-.228 6.114 6.114 0 0 0-2.368.438 6.123 6.123 0 0 0-2.02 1.312c-1.217 1.141-1.826 3.094-1.826 5.834v.025zm-2.485-.026c0-3.044.812-5.403 2.435-7.102a8.152 8.152 0 0 1 2.86-1.94 8.162 8.162 0 0 1 3.404-.597 8.543 8.543 0 0 1 4.489 1.167 7.62 7.62 0 0 1 3.12 3.373 10.63 10.63 0 0 1 1.065 4.87 10.55 10.55 0 0 1-1.141 4.946 7.488 7.488 0 0 1-3.17 3.297 9.03 9.03 0 0 1-6.824.792 9.026 9.026 0 0 1-2.154-.919 7.803 7.803 0 0 1-3.069-3.373 10.11 10.11 0 0 1-1.014-4.54M186.652 14.329h4.692c1.522 0 2.638-.304 3.297-.888.342-.31.602-.678.78-1.104s.256-.87.235-1.331c-.025-.761-.254-1.37-.609-1.953a2.578 2.578 0 0 0-1.522-1.065 10.238 10.238 0 0 0-2.232-.152h-4.641v6.493zm-2.41 9.511V5.679h6.848c.926-.018 1.848.041 2.764.178a5.364 5.364 0 0 1 2.232.862 4.297 4.297 0 0 1 1.446 1.75c.375.768.561 1.58.558 2.435a5.53 5.53 0 0 1-.347 2.123 5.533 5.533 0 0 1-1.124 1.834c-.964 1.065-2.739 1.598-5.326 1.598h-4.641v7.381h-2.41M206.104 14.329h4.692c1.522 0 2.638-.304 3.297-.888a3.07 3.07 0 0 0 .78-1.104c.178-.426.256-.87.235-1.331-.025-.761-.254-1.37-.609-1.953a2.578 2.578 0 0 0-1.522-1.065 10.238 10.238 0 0 0-2.232-.152h-4.641v6.493zm-2.41 9.511V5.679h6.848c.926-.018 1.848.041 2.764.178a5.364 5.364 0 0 1 2.232.862 4.297 4.297 0 0 1 1.446 1.75c.375.768.561 1.58.558 2.435a5.53 5.53 0 0 1-.347 2.123 5.533 5.533 0 0 1-1.124 1.834c-.964 1.065-2.739 1.598-5.326 1.598h-4.641v7.381h-2.41M223.197 23.84V5.679h13.137v2.182h-10.728v5.529h10.018v2.131h-10.018v6.188h11.159v2.131zM61.68 33.433h-.58a1.986 1.986 0 0 0-.449.033.912.912 0 0 0-.327.139.54.54 0 0 0-.204.22.64.64 0 0 0-.057.286c0 .188.057.335.171.449.144.12.31.175.498.163a.93.93 0 0 0 .482-.131 2.01 2.01 0 0 0 .457-.416v-.759l.009.016zm.645 1.633c0 .033 0 .057-.016.073a.236.236 0 0 1-.082.033.812.812 0 0 1-.163.016c-.082 0-.131 0-.171-.016a.182.182 0 0 1-.09-.033c-.024-.016-.033-.041-.033-.073v-.359a1.753 1.753 0 0 1-.531.392c-.193.094-.397.14-.612.139a1.64 1.64 0 0 1-.506-.082.94.94 0 0 1-.653-.547 1.153 1.153 0 0 1-.082-.457c0-.212.041-.384.122-.531.082-.147.204-.278.367-.376.173-.103.358-.174.555-.212.247-.055.498-.082.751-.082h.49v-.278a1.374 1.374 0 0 0-.041-.367.571.571 0 0 0-.392-.425 1.47 1.47 0 0 0-.816 0 2.15 2.15 0 0 0-.596.269.326.326 0 0 1-.131.049c-.024 0-.041 0-.057-.016a.164.164 0 0 1-.049-.049.287.287 0 0 1-.024-.082.76.76 0 0 1 0-.269.237.237 0 0 1 .082-.106.588.588 0 0 1 .18-.122c.341-.173.703-.26 1.086-.261.225-.007.445.02.661.082a.922.922 0 0 1 .678.678c.057.195.084.393.082.596v2.417M54.337 30.703v.139a.419.419 0 0 1-.033.098.109.109 0 0 1-.041.049.086.086 0 0 1-.041.016c-.033 0-.082-.024-.163-.082a2.465 2.465 0 0 0-1.363-.408 1.793 1.793 0 0 0-.767.163 1.616 1.616 0 0 0-.571.425 1.924 1.924 0 0 0-.359.653 2.63 2.63 0 0 0-.131.816c-.005.302.042.596.139.882.083.244.211.462.384.653.161.173.352.304.571.392.399.161.807.188 1.225.082.163-.041.327-.098.465-.18v-1.502h-1.208c-.041 0-.082-.016-.098-.065a.828.828 0 0 1-.024-.343c0-.033.008-.065.024-.082a.154.154 0 0 1 .041-.057c.018-.008.037-.011.057-.008h1.633a.246.246 0 0 1 .18.057.21.21 0 0 1 .049.09.366.366 0 0 1 .024.131v1.959a.402.402 0 0 1-.041.18.327.327 0 0 1-.147.147 3.384 3.384 0 0 1-2.531.147 2.121 2.121 0 0 1-1.306-1.355 3.11 3.11 0 0 1-.163-1.061c0-.425.057-.792.18-1.127a2.237 2.237 0 0 1 1.331-1.388 2.67 2.67 0 0 1 1.608-.147c.276.058.54.151.792.278a.955.955 0 0 1 .196.139c.033.03.057.065.073.106a.763.763 0 0 1 .015.203zM68.332 35.062v.057a.14.14 0 0 1-.065.033.377.377 0 0 1-.098.033 1.342 1.342 0 0 1-.424-.025.132.132 0 0 1-.065-.041.11.11 0 0 1 0-.057v-5.323l.008-.057a.11.11 0 0 1 .057-.049 1.32 1.32 0 0 1 .523 0c.028.008.05.024.065.049a.092.092 0 0 1 0 .057v5.323zM76.061 32.919a1.16 1.16 0 0 0-.245-.816c-.147-.196-.384-.294-.694-.294a.878.878 0 0 0-.735.335 1.093 1.093 0 0 0-.196.359 1.46 1.46 0 0 0-.073.408h1.943v.008zm.653.196c0 .098-.024.18-.082.22a.254.254 0 0 1-.163.065H74.11c0 .196.016.367.057.531.037.151.105.288.204.408.094.12.211.209.351.269.178.07.364.102.555.098.363.004.709-.072 1.037-.229a.389.389 0 0 1 .147-.057c.016.004.03.012.041.024a.078.078 0 0 1 .041.041.728.728 0 0 1 .008.359.125.125 0 0 1-.033.049.203.203 0 0 1-.024.049.613.613 0 0 1-.131.082 3.535 3.535 0 0 1-1.151.212 2.206 2.206 0 0 1-.767-.131 1.36 1.36 0 0 1-.898-.98 2.824 2.824 0 0 1-.131-.841c0-.31.041-.588.122-.833s.188-.457.343-.621c.147-.18.327-.31.547-.4.224-.095.458-.141.702-.139.252-.007.495.039.727.139.402.175.658.474.767.898.062.216.092.436.09.661v.126M83.802 31.707a2.508 2.508 0 0 1-.024.245.137.137 0 0 1-.033.049c0 .016-.024.016-.041.016-.024 0-.049 0-.082-.016a.65.65 0 0 0-.106-.033 1.292 1.292 0 0 0-.122-.033.688.688 0 0 0-.163-.016.504.504 0 0 0-.188.033.81.81 0 0 0-.204.139 5.472 5.472 0 0 0-.482.612v2.359l-.008.057a.136.136 0 0 1-.057.033.377.377 0 0 1-.098.033 1.342 1.342 0 0 1-.424-.025.132.132 0 0 1-.065-.041.11.11 0 0 1 0-.057V31.47l.008-.041a.082.082 0 0 1 .049-.041.224.224 0 0 1 .106-.033c.124-.013.246-.005.367.025a.087.087 0 0 1 .049.049.077.077 0 0 1 .016.041v.531c.081-.124.171-.241.269-.351.09-.082.171-.163.245-.204a.88.88 0 0 1 .237-.114.864.864 0 0 1 .343-.024.882.882 0 0 1 .269.049c.03.009.057.023.082.041a.111.111 0 0 1 .033.041l.008.041c.007.076.01.152.008.229h.008zM89.396 30.262c0 .155-.033.261-.09.318-.057.049-.163.082-.327.082-.155 0-.261-.025-.318-.082-.057-.057-.082-.163-.082-.31 0-.155.033-.261.082-.318.065-.049.171-.082.327-.082.163.008.261.033.327.09.049.049.073.163.073.302h.008zm-.082 4.8c0 .016 0 .041-.016.057a.151.151 0 0 1-.049.033.377.377 0 0 1-.098.033 1.342 1.342 0 0 1-.424-.025.126.126 0 0 1-.057-.033.122.122 0 0 1-.008-.057v-3.641a.117.117 0 0 1 .057-.041.413.413 0 0 1 .098-.024 1.32 1.32 0 0 1 .425.024.11.11 0 0 1 .057.041.086.086 0 0 1 .016.041v3.592M97.042 32.919a1.16 1.16 0 0 0-.245-.816c-.147-.196-.384-.294-.694-.294a.878.878 0 0 0-.735.335 1.093 1.093 0 0 0-.196.359 1.46 1.46 0 0 0-.073.408h1.943v.008zm.653.196c0 .098-.024.18-.082.22a.254.254 0 0 1-.163.065h-2.36c0 .196.016.367.057.531.037.151.105.288.204.408.094.12.211.209.351.269.178.07.364.102.555.098.363.004.709-.072 1.037-.229a.389.389 0 0 1 .147-.057c.016.004.03.012.041.024a.078.078 0 0 1 .041.041.728.728 0 0 1 .008.359.125.125 0 0 1-.033.049.203.203 0 0 1-.024.049.613.613 0 0 1-.131.082 3.535 3.535 0 0 1-1.151.212 2.202 2.202 0 0 1-.767-.131 1.36 1.36 0 0 1-.898-.98 2.824 2.824 0 0 1-.131-.841c0-.31.041-.588.122-.833s.188-.457.343-.621c.147-.18.327-.31.547-.4.224-.095.458-.141.702-.139.252-.007.495.039.727.139.402.175.658.474.767.898.062.216.092.436.09.661v.126M110.623 30.001v.122a.32.32 0 0 1-.033.073.082.082 0 0 1-.024.041.072.072 0 0 1-.041 0h-.065a.844.844 0 0 0-.098-.041.74.74 0 0 0-.139-.041.771.771 0 0 0-.441.024.376.376 0 0 0-.163.155.707.707 0 0 0-.098.261c-.016.127-.022.255-.016.384v.392h.8a.086.086 0 0 1 .041.016c.016 0 .033.025.041.041a.2.2 0 0 1 .024.082c.01.043.016.086.016.131a.429.429 0 0 1-.033.212c-.024.041-.057.065-.098.065h-.8v3.143l-.016.057a.136.136 0 0 1-.057.033.377.377 0 0 1-.098.033 1.293 1.293 0 0 1-.425-.025.125.125 0 0 1-.049-.033.088.088 0 0 1-.016-.057v-3.151h-.506a.099.099 0 0 1-.098-.065.864.864 0 0 1-.033-.343c0-.033.016-.065.025-.082a.08.08 0 0 1 .041-.049.088.088 0 0 1 .057-.016h.506v-.376c0-.245.016-.457.065-.637a1.18 1.18 0 0 1 .22-.441.831.831 0 0 1 .359-.245c.256-.093.517-.112.784-.057a.91.91 0 0 1 .204.057.278.278 0 0 1 .106.049.2.2 0 0 1 .033.065.848.848 0 0 1 .025.223zM118.012 30.306c0 .147-.024.245-.082.302-.049.057-.147.082-.294.082-.139 0-.245-.024-.286-.082-.057-.041-.082-.139-.082-.278 0-.147.024-.245.082-.302.049-.057.147-.082.294-.082s.245.025.294.082c.049.041.082.139.082.278m-1.42 0c0 .147-.024.245-.082.302-.041.057-.139.082-.286.082s-.245-.024-.294-.082c-.049-.041-.082-.139-.082-.278 0-.147.033-.245.082-.302.049-.065.147-.098.294-.098s.245.033.294.09c.049.049.082.147.082.286m1.861 4.76c0 .016 0 .033-.016.049a.104.104 0 0 1-.049.041.352.352 0 0 1-.09.024 1.205 1.205 0 0 1-.294 0 .352.352 0 0 1-.09-.024.098.098 0 0 1-.049-.041.118.118 0 0 1-.008-.049v-.482a2.212 2.212 0 0 1-.604.498 1.32 1.32 0 0 1-1.208.033 1.06 1.06 0 0 1-.4-.327 1.343 1.343 0 0 1-.22-.474 2.995 2.995 0 0 1-.065-.661v-2.18c0-.025 0-.041.016-.049a.117.117 0 0 1 .057-.041.278.278 0 0 1 .098-.025c.143-.015.284-.007.425.025.02.009.037.022.049.041a.08.08 0 0 1 .016.049v2.09c0 .204.016.367.049.506.027.117.073.226.139.327a.691.691 0 0 0 .572.277.862.862 0 0 0 .498-.18c.163-.114.343-.286.522-.514v-2.498c0-.025 0-.041.016-.049a.117.117 0 0 1 .057-.041.24.24 0 0 1 .098-.024c.14-.013.279-.005.416.024a.11.11 0 0 1 .057.041.068.068 0 0 1 .016.049v3.592M125.758 31.707a2.508 2.508 0 0 1-.024.245.137.137 0 0 1-.033.049c0 .016-.024.016-.041.016-.024 0-.049 0-.082-.016a.65.65 0 0 0-.106-.033 1.292 1.292 0 0 0-.122-.033.688.688 0 0 0-.163-.016.504.504 0 0 0-.188.033.81.81 0 0 0-.204.139 5.472 5.472 0 0 0-.482.612v2.359l-.008.057a.136.136 0 0 1-.057.033.377.377 0 0 1-.098.033 1.35 1.35 0 0 1-.425-.025.132.132 0 0 1-.065-.041.11.11 0 0 1 0-.057V31.47l.008-.041a.082.082 0 0 1 .049-.041.224.224 0 0 1 .106-.033c.124-.013.246-.005.367.025a.087.087 0 0 1 .049.049.077.077 0 0 1 .016.041v.531c.081-.124.171-.241.269-.351.09-.082.171-.163.245-.204a.88.88 0 0 1 .237-.114.864.864 0 0 1 .343-.024.882.882 0 0 1 .269.049c.03.009.057.023.082.041a.111.111 0 0 1 .033.041l.008.041c.007.076.01.152.008.229h.009zM139.239 33.724a1.002 1.002 0 0 0-.082-.408.732.732 0 0 0-.212-.294.903.903 0 0 0-.351-.18 1.867 1.867 0 0 0-.531-.065h-.825v1.821h.996c.163 0 .294-.024.408-.057a.914.914 0 0 0 .31-.163.784.784 0 0 0 .212-.278.884.884 0 0 0 .082-.376h-.007zm-.311-2.351c0-.122-.016-.237-.049-.335a.605.605 0 0 0-.163-.261.711.711 0 0 0-.294-.163 1.638 1.638 0 0 0-.473-.049h-.71v1.657h.784a1.13 1.13 0 0 0 .416-.057.694.694 0 0 0 .425-.465 1.07 1.07 0 0 0 .057-.327m1.044 2.311a1.496 1.496 0 0 1-.245.816 1.479 1.479 0 0 1-.629.49 2.03 2.03 0 0 1-.922.171h-1.355a.293.293 0 0 1-.171-.057c-.057-.049-.082-.114-.082-.22v-4.605c0-.098.024-.171.082-.212a.28.28 0 0 1 .163-.065h1.176c.257-.009.51.019.759.082.182.052.345.139.49.261.132.112.23.248.294.408.171.418.149.827-.065 1.225a1.086 1.086 0 0 1-.514.425c.468.084.781.351.939.8.054.155.081.315.08.481M145.81 30.262c0 .155-.033.261-.09.318-.057.049-.163.082-.327.082-.155 0-.261-.025-.318-.082-.057-.057-.082-.163-.082-.31 0-.155.033-.261.082-.318.065-.049.171-.082.327-.082.163.008.261.033.327.09.049.049.073.163.073.302h.008zm-.081 4.8c0 .016 0 .041-.016.057a.151.151 0 0 1-.049.033.377.377 0 0 1-.098.033 1.35 1.35 0 0 1-.425-.025.126.126 0 0 1-.057-.033.122.122 0 0 1-.008-.057v-3.641a.117.117 0 0 1 .057-.041.413.413 0 0 1 .098-.024c.143-.015.284-.007.424.024a.11.11 0 0 1 .057.041.086.086 0 0 1 .016.041v3.592M151.702 35.062v.057a.14.14 0 0 1-.065.033.377.377 0 0 1-.098.033 1.35 1.35 0 0 1-.425-.025.132.132 0 0 1-.065-.041.11.11 0 0 1 0-.057v-5.323l.008-.057a.11.11 0 0 1 .057-.049 1.32 1.32 0 0 1 .523 0c.028.008.05.024.065.049a.092.092 0 0 1 0 .057v5.323zM159.337 32.543a2.529 2.529 0 0 0-.522-.506.866.866 0 0 0-.522-.18.722.722 0 0 0-.425.122.938.938 0 0 0-.286.318 1.583 1.583 0 0 0-.163.441 3.446 3.446 0 0 0-.008 1.029c.025.163.074.318.147.465.066.132.158.24.278.327.317.187.627.176.931-.033l.269-.22a3.5 3.5 0 0 0 .294-.327v-1.445l.007.009zm.653 2.523c0 .016 0 .033-.016.049 0 .016-.016.041-.049.041a.955.955 0 0 1-.457 0 .109.109 0 0 1-.049-.041.093.093 0 0 1-.008-.049v-.482a2.382 2.382 0 0 1-.596.49 1.306 1.306 0 0 1-.653.163 1.368 1.368 0 0 1-.678-.155 1.283 1.283 0 0 1-.449-.408 1.857 1.857 0 0 1-.253-.62 3.346 3.346 0 0 1 .016-1.576c.065-.245.163-.465.294-.637.129-.177.292-.313.49-.408.21-.097.43-.144.661-.139.204 0 .408.049.571.139.197.107.371.243.522.408v-2.09c0-.016 0-.033.016-.049a.086.086 0 0 1 .057-.041.886.886 0 0 1 .261-.033.882.882 0 0 1 .261.033.08.08 0 0 1 .049.041.08.08 0 0 1 .016.049v5.307M168.133 34.944a.174.174 0 0 0 .025-.049.125.125 0 0 0 .033-.049.74.74 0 0 0-.008-.359.078.078 0 0 0-.041-.041.075.075 0 0 0-.041-.024.389.389 0 0 0-.147.057 2.31 2.31 0 0 1-1.037.229 1.42 1.42 0 0 1-.555-.098.885.885 0 0 1-.351-.269 1.02 1.02 0 0 1-.204-.408 2.152 2.152 0 0 1-.057-.531h2.359a.251.251 0 0 0 .163-.065c.057-.041.082-.122.082-.22v-.122a2.24 2.24 0 0 0-.09-.661 1.284 1.284 0 0 0-.767-.898 1.695 1.695 0 0 0-.727-.139 1.742 1.742 0 0 0-.702.139c-.22.09-.4.22-.547.4-.155.163-.261.376-.343.62a2.62 2.62 0 0 0-.122.833c.001.287.045.567.131.841.129.483.428.809.898.98.248.089.504.132.767.131a3.562 3.562 0 0 0 1.151-.212.91.91 0 0 0 .13-.085zm-2.302-2.441c.043-.132.108-.252.196-.359a.881.881 0 0 1 .735-.335c.31 0 .547.098.694.294.183.239.264.509.244.808h-1.942c.005-.14.029-.276.073-.408zM176.536 35.062c0 .016 0 .041-.016.057a.151.151 0 0 1-.049.033.377.377 0 0 1-.098.033 1.293 1.293 0 0 1-.425-.025.13.13 0 0 1-.049-.041.088.088 0 0 1-.016-.057v-2.098a2.034 2.034 0 0 0-.049-.498 1.006 1.006 0 0 0-.139-.327.6.6 0 0 0-.245-.204.724.724 0 0 0-.327-.073.82.82 0 0 0-.498.18 2.662 2.662 0 0 0-.514.514v2.506l-.016.057a.136.136 0 0 1-.057.033.377.377 0 0 1-.098.033 1.342 1.342 0 0 1-.424-.025.132.132 0 0 1-.065-.041.11.11 0 0 1 0-.057V31.47l.008-.041a.082.082 0 0 1 .049-.041.224.224 0 0 1 .106-.033c.124-.013.246-.005.367.025a.087.087 0 0 1 .049.049.077.077 0 0 1 .016.041v.482c.196-.229.408-.392.596-.498.204-.106.408-.163.612-.163.245 0 .441.041.604.131.161.075.294.184.4.327.103.141.173.296.212.465.048.215.07.433.065.653v2.195zM184.244 32.543a2.529 2.529 0 0 0-.522-.506.866.866 0 0 0-.522-.18.717.717 0 0 0-.424.122.938.938 0 0 0-.286.318 1.583 1.583 0 0 0-.163.441 3.446 3.446 0 0 0-.008 1.029c.025.163.074.318.147.465.066.132.158.24.278.327.317.187.627.176.931-.033l.269-.22a3.5 3.5 0 0 0 .294-.327v-1.445l.006.009zm.653 2.523c0 .016 0 .033-.016.049 0 .016-.016.041-.049.041a.955.955 0 0 1-.457 0 .109.109 0 0 1-.049-.041.093.093 0 0 1-.008-.049v-.482a2.382 2.382 0 0 1-.596.49 1.306 1.306 0 0 1-.653.163 1.368 1.368 0 0 1-.678-.155 1.283 1.283 0 0 1-.449-.408 1.857 1.857 0 0 1-.253-.62 3.346 3.346 0 0 1 .016-1.576c.065-.245.163-.465.294-.637.129-.177.292-.313.49-.408.21-.097.43-.144.661-.139.204 0 .408.049.571.139.197.107.371.243.522.408v-2.09c0-.016 0-.033.016-.049a.086.086 0 0 1 .057-.041.886.886 0 0 1 .261-.033.882.882 0 0 1 .261.033.08.08 0 0 1 .049.041.08.08 0 0 1 .016.049v5.307M192.608 32.919a1.16 1.16 0 0 0-.245-.816c-.147-.196-.384-.294-.694-.294a.878.878 0 0 0-.735.335 1.093 1.093 0 0 0-.196.359 1.424 1.424 0 0 0-.073.408h1.943v.008zm.653.196c0 .098-.025.18-.082.22a.254.254 0 0 1-.163.065h-2.359c0 .196.016.367.057.531.037.151.105.288.204.408.094.12.211.209.351.269.179.07.364.102.555.098.363.004.709-.072 1.037-.229a.389.389 0 0 1 .147-.057c.016.004.03.012.041.024a.078.078 0 0 1 .041.041.728.728 0 0 1 .008.359.125.125 0 0 1-.033.049.203.203 0 0 1-.024.049.613.613 0 0 1-.131.082 3.535 3.535 0 0 1-1.151.212 2.202 2.202 0 0 1-.767-.131 1.36 1.36 0 0 1-.898-.98 2.824 2.824 0 0 1-.131-.841c0-.31.041-.588.122-.833s.188-.457.343-.621c.147-.18.327-.31.547-.4.224-.095.458-.141.702-.139.252-.007.495.039.727.139.402.175.658.474.767.898.062.216.092.436.09.661v.126M207.667 35.046c0 .025 0 .041-.016.065 0 .016-.025.025-.049.041a1.06 1.06 0 0 1-.286.033l-.229-.008a.294.294 0 0 1-.204-.122l-1.894-2.58v2.58c0 .025 0 .041-.016.057a.117.117 0 0 1-.057.041.94.94 0 0 1-.269.033.94.94 0 0 1-.269-.033.11.11 0 0 1-.057-.041.107.107 0 0 1-.016-.057v-4.948c0-.025 0-.041.016-.065a.093.093 0 0 1 .057-.033.933.933 0 0 1 .433-.024c.049 0 .082.008.106.024a.093.093 0 0 1 .057.033c.013.02.019.042.016.065v2.286l1.829-2.286a.213.213 0 0 1 .131-.098.56.56 0 0 1 .106-.024c.114-.013.229-.013.343 0 .041.016.082.024.09.041.033 0 .049.016.057.033.013.014.022.03.024.049a.216.216 0 0 1-.033.098.768.768 0 0 1-.098.147l-1.714 2.041 1.845 2.449c.033.046.06.095.082.147a.2.2 0 0 1 .015.056zM215.677 35.066c0 .016 0 .033-.016.049a.104.104 0 0 1-.049.041.352.352 0 0 1-.09.024 1.205 1.205 0 0 1-.294 0 .404.404 0 0 1-.082-.024.098.098 0 0 1-.049-.041.118.118 0 0 1-.008-.049v-.482a2.22 2.22 0 0 1-.629.498 1.323 1.323 0 0 1-1.2.033 1.06 1.06 0 0 1-.392-.327 1.343 1.343 0 0 1-.22-.474 2.995 2.995 0 0 1-.065-.661v-2.18l.008-.049a.117.117 0 0 1 .057-.041.279.279 0 0 1 .106-.025c.14-.014.279-.006.416.025a.108.108 0 0 1 .065.041c.008.015.011.032.008.049v2.09c0 .204.016.367.041.506.03.118.079.226.147.327a.686.686 0 0 0 .237.204c.103.05.212.074.327.073a.772.772 0 0 0 .49-.18c.171-.114.343-.286.531-.514v-2.498l.008-.049a.117.117 0 0 1 .057-.041.24.24 0 0 1 .098-.024 1.37 1.37 0 0 1 .424.016c.02.009.037.022.049.041a.073.073 0 0 1 .033.049v3.6l-.008-.007zM224.066 35.062c0 .016 0 .041-.016.057a.151.151 0 0 1-.049.033.377.377 0 0 1-.098.033 1.286 1.286 0 0 1-.424-.025.13.13 0 0 1-.049-.041.088.088 0 0 1-.016-.057v-2.098a2.034 2.034 0 0 0-.049-.498 1.006 1.006 0 0 0-.139-.327.6.6 0 0 0-.245-.204.724.724 0 0 0-.327-.073.82.82 0 0 0-.498.18 2.662 2.662 0 0 0-.514.514v2.506l-.016.057a.136.136 0 0 1-.057.033.377.377 0 0 1-.098.033 1.342 1.342 0 0 1-.424-.025.132.132 0 0 1-.065-.041.11.11 0 0 1 0-.057V31.47l.008-.041a.082.082 0 0 1 .049-.041.224.224 0 0 1 .106-.033c.124-.013.246-.005.367.025a.087.087 0 0 1 .049.049.077.077 0 0 1 .016.041v.482c.196-.229.408-.392.596-.498.204-.106.408-.163.612-.163.245 0 .441.041.604.131.161.075.294.184.4.327.103.141.173.296.212.465.048.215.07.433.065.653v2.195zM231.607 34.086c.002.171-.033.335-.106.49a.963.963 0 0 1-.286.359 1.292 1.292 0 0 1-.449.229 1.995 1.995 0 0 1-.931.041 2.224 2.224 0 0 1-.547-.163.743.743 0 0 1-.139-.098.218.218 0 0 1-.065-.106.76.76 0 0 1-.016-.196.854.854 0 0 1 .025-.22.078.078 0 0 1 .033-.041.083.083 0 0 1 .057-.016.634.634 0 0 1 .122.057c.166.093.337.175.514.245.231.061.463.061.694 0a.947.947 0 0 0 .245-.106.461.461 0 0 0 .188-.417.39.39 0 0 0-.082-.261.717.717 0 0 0-.196-.18 1.546 1.546 0 0 0-.286-.147l-.661-.278a1.31 1.31 0 0 1-.294-.212.97.97 0 0 1-.204-.294 1.002 1.002 0 0 1-.082-.408c0-.147.033-.278.082-.408a.912.912 0 0 1 .245-.335c.114-.098.245-.18.408-.245.289-.097.583-.116.882-.057.155.028.305.075.449.139.043.02.084.045.122.073a.182.182 0 0 1 .057.057.42.42 0 0 1 .033.131v.212a.235.235 0 0 1-.024.082.098.098 0 0 1-.033.049.082.082 0 0 1-.041.008c-.024.008-.057-.008-.106-.033a1.717 1.717 0 0 0-.433-.188 1.108 1.108 0 0 0-.62 0 .535.535 0 0 0-.212.098.454.454 0 0 0-.122.163.527.527 0 0 0-.041.204.38.38 0 0 0 .082.261.776.776 0 0 0 .204.196c.094.055.192.102.294.139.222.092.442.188.661.286.108.054.206.122.294.204a.864.864 0 0 1 .285.686zM238.502 34.797c0 .082 0 .139-.016.188a.198.198 0 0 1-.041.098.311.311 0 0 1-.098.057 1.478 1.478 0 0 1-.98.016.75.75 0 0 1-.522-.604 2.322 2.322 0 0 1-.049-.539v-2.098h-.506c-.041 0-.073-.016-.098-.065a.443.443 0 0 1-.033-.204l.008-.131a.352.352 0 0 1 .025-.082l.049-.041a.114.114 0 0 1 .065-.016h.49v-.849l.016-.057a.115.115 0 0 1 .049-.041.335.335 0 0 1 .106-.033c.141-.011.279 0 .416.033.02.009.037.022.049.041.01.015.016.031.016.049v.849h.923l.057.024.041.041a.217.217 0 0 1 .025.082l.008.131a.443.443 0 0 1-.033.204c-.025.049-.057.065-.106.065h-.914v2.008c0 .245.041.441.106.572.082.106.212.163.4.163a.76.76 0 0 0 .286-.057c.055-.017.109-.036.163-.057.033.008.041.016.041.033.016-.008.025 0 .033.025a.33.33 0 0 1 .016.082l.008.113zM35.408 4.476c-.02.061-.04.123-.065.183-.24.571-.547 1.168-.666 1.776-.061.322-.08.653-.123.977-.013.105-.073.179-.144.251a9.074 9.074 0 0 0-.491.528c-.406.479-.683 1.027-.966 1.584-.13.246-.187.516-.335.755-.145.235-.296.499-.499.688a1.182 1.182 0 0 1-.624.258 5.209 5.209 0 0 1-1.006-.041c-.111-.016-.249-.067-.299-.176-.058-.15-.052-.333-.055-.492-.006-.462.09-.922.195-1.37a2.35 2.35 0 0 0 .052-.567c-.005-.25.015-.487-.029-.724-.124.06-.243.126-.346.218-.216.192-.415.384-.549.644-.204.387-.331.851-.279 1.29.041.467.162.885.155 1.358-.005.317.012.636-.007.952a6.011 6.011 0 0 1-.383 1.562c-.156.343-.298.709-.498 1.023-.093.147-.171.3-.276.439-.205.274-.399.549-.62.807-.276.343-.55.696-.855 1.014-.235.262-.457.54-.702.793-.213.209-.407.435-.613.651.103.134.225.249.341.37l9.961 10.731c.809.867 1.616 1.736 2.418 2.609.249.296.543.546.794.838.198.226.418.437.6.676-.242.014-.481.006-.726.007-2.242.001-4.485-.002-6.727.001-.12-.006-.279.023-.386-.034-.15-.119-.271-.277-.403-.416-.74-.796-1.487-1.598-2.22-2.401-2.064-2.224-4.136-4.451-6.198-6.678-.433-.462-.855-.934-1.293-1.391-.353.359-.687.738-1.033 1.104-2.383 2.569-4.769 5.131-7.15 7.698-.559.607-1.114 1.218-1.678 1.821-.091.098-.173.217-.281.296-.2.067-.451.012-.66.013-2.367-.006-4.734-.016-7.101-.012a4.522 4.522 0 0 1-.368-.011c.096-.163.235-.28.362-.417 2.133-2.273 4.277-4.534 6.41-6.806 1.761-1.865 3.518-3.729 5.275-5.597.565-.602 1.115-1.218 1.674-1.826.169-.197.354-.378.514-.582-.134-.161-.285-.306-.421-.465-.161-.19-.347-.356-.508-.546-.363-.412-.744-.795-1.08-1.231-.398-.516-.811-.98-1.123-1.558-.098-.189-.211-.368-.292-.562a15.269 15.269 0 0 1-.351-.929c-.214-.673-.188-1.319-.184-2.012.012-.38.085-.747.129-1.122.018-.452.028-.957-.159-1.379-.129-.291-.342-.481-.564-.698-.116-.107-.218-.213-.376-.255-.065.186-.063.371-.072.565-.012.263.015.527.075.782.106.438.197.909.168 1.361-.01.137-.003.292-.052.422-.041.116-.181.117-.282.137-.263.029-.526.083-.791.088-.427-.016-.902-.183-1.139-.561-.126-.199-.272-.341-.358-.558a12.914 12.914 0 0 0-.322-.733c-.209-.457-.435-.894-.747-1.29-.2-.243-.42-.466-.649-.68-.104-.094-.106-.211-.125-.34-.035-.318-.049-.628-.123-.942-.082-.383-.237-.735-.397-1.091-.104-.259-.241-.505-.33-.769.282.035.53.134.813.212.314.104.628.207.941.312.119.036.225.076.351.05.37-.072.729-.22 1.099-.293.159-.033.319-.07.48-.092.221-.03.445-.002.675.003.389.014.748.11 1.123.205.131.032.253.075.37.144.294.166.577.267.822.506.222.22.436.452.63.697.179.249.362.476.507.745.177.343.388.665.548 1.017.254.468.457.959.715 1.425.106.188.239.346.366.519.097.127.192.26.323.354.226.165.485.281.718.439.164.113.345.195.506.312-.105.179-.25.328-.359.505.187.238.4.452.596.684l2.395 2.701c.116.134.23.268.359.39.071-.064.141-.129.203-.201.299-.356.618-.695.926-1.044.606-.674 1.205-1.354 1.818-2.022.142-.165.297-.315.419-.496-.09-.172-.243-.328-.301-.512.03-.061.081-.094.136-.13.309-.189.614-.385.923-.574.267-.162.386-.407.579-.643.258-.316.413-.687.606-1.059.244-.473.473-.966.759-1.414.114-.19.188-.384.318-.565.091-.125.178-.253.267-.379.123-.173.267-.319.413-.472.118-.122.234-.242.367-.348.226-.188.498-.319.759-.464.188-.106.384-.131.588-.187.21-.053.41-.116.628-.135.354-.025.701-.061 1.056-.015.293.017.551.114.831.189.146.04.286.095.43.141.112.033.215.067.333.043.221-.046.434-.134.652-.192a5.42 5.42 0 0 0 .756-.245c.169-.056.353-.141.532-.119z"/>
</svg>
